<?xml version="1.0" encoding="UTF-8"?>
<svg id="Capa_1" xmlns="http://www.w3.org/2000/svg" viewBox="0 0 149.09 145.37">
  <defs>
    <style>
      .cls-1 {
        fill-rule: evenodd;
      }

      .cls-1, .cls-2 {
        fill: #00ac00;
      }
    </style>
  </defs>
  <path class="cls-1" d="M14.86,52.03v.06c-.06.27-.08.47-.08.59,0,.83.47,1.45,1.41,1.86.96.41,2.42.61,4.41.61,1.51,0,2.69-.17,3.55-.5.86-.33,1.29-.79,1.29-1.37,0-.88-1.7-1.59-5.09-2.15-.4-.06-.7-.11-.89-.14-.22-.04-.54-.09-.95-.16-5.39-.88-8.86-1.84-10.39-2.87-.75-.51-1.32-1.1-1.7-1.78-.37-.68-.56-1.46-.56-2.31,0-2.11,1.24-3.71,3.71-4.81,2.48-1.1,6.1-1.65,10.87-1.65s8.2.51,10.47,1.54c2.27,1.04,3.41,2.63,3.41,4.77v.25h-8.93v-.1c0-.74-.45-1.29-1.35-1.67-.9-.38-2.23-.58-3.97-.58-1.35,0-2.4.13-3.13.41-.74.27-1.1.66-1.1,1.16,0,.89,1.95,1.65,5.84,2.28.75.11,1.34.2,1.76.27,2.77.46,4.75.86,5.92,1.2,1.18.33,2.19.72,3.04,1.18.95.52,1.69,1.18,2.2,1.97.52.79.77,1.66.77,2.61,0,2.17-1.35,3.84-4.05,5.01-2.7,1.17-6.58,1.76-11.65,1.76s-8.63-.56-10.87-1.69c-2.24-1.13-3.35-2.93-3.35-5.42v-.32h9.39ZM39.32,59.09v-21.37h25.44v4.61h-15.89v3.4h14.69v4.55s-14.69,0-14.69,0v4.15h16.49v4.66s-26.05,0-26.05,0ZM69.35,59.09v-21.37h12.09l12.94,14.34v-14.34h9.18v21.37h-12.54l-12.52-14.39v14.39s-9.15,0-9.15,0ZM128.25,50.57l-4.57-7.77-4.83,7.77h9.41ZM113.69,59.09h-9.58l14.79-21.37h10.6l14.11,21.37h-10.64l-2.16-3.86h-14.82l-2.3,3.86Z"/>
  <g>
    <path class="cls-1" d="M28.28,134.44l-8.54-8.03,25.98-45.09c1.42-2.46-.36-5.53-3.2-5.53H0v-11.28h68.46l-40.18,69.93Z"/>
    <path class="cls-1" d="M120.81,134.44l8.54-8.03-25.98-45.09c-1.42-2.46.36-5.53,3.19-5.53h42.53v-11.28s-68.46,0-68.46,0l40.18,69.93Z"/>
  </g>
  <path class="cls-1" d="M74.02,76.43c.06-.11.09-.16.09-.16l38.58,63.76-10.24,5.33-24.86-41.63c-1.46-2.45-5.02-2.46-6.47,0-8.29,13.97-24.7,41.63-24.7,41.63l-10.03-4.96s35.57-60.47,37.63-63.97Z"/>
  <circle class="cls-2" cx="74.54" cy="15.91" r="15.91"/>
</svg>